<?xml version="1.0" encoding="UTF-8"?>
<svg width="750px" height="625px" viewBox="0 0 750 625" version="1.1" xmlns="http://www.w3.org/2000/svg" xmlns:xlink="http://www.w3.org/1999/xlink">
    <!-- Generator: Sketch 48.2 (47327) - http://www.bohemiancoding.com/sketch -->
    <title>Artboard</title>
    <desc>Created with Sketch.</desc>
    <defs>
        <polygon id="path-1" points="0 0.836 750 0.836 750 243.44 0 243.44"></polygon>
    </defs>
    <g id="Page-1" stroke="none" stroke-width="1" fill="none" fill-rule="evenodd">
        <g id="Artboard">
            <g id="Group-49" transform="translate(0.000000, 381.000000)">
                <mask id="mask-2" fill="white">
                    <use xlink:href="#path-1"></use>
                </mask>
                <g id="Clip-47"></g>
                <path d="M718.51,88.898 L719.528,88.898 L719.528,86.798 L719.511,86.798 C726.097,80.611 717.537,76.946 713.313,72.667 C713.414,72.507 713.471,72.328 713.471,72.138 L713.471,71.21 C713.471,70.774 713.17,70.39 712.722,70.179 C712.952,70.057 713.095,69.889 713.095,69.701 C713.095,69.476 712.888,69.277 712.572,69.156 L712.444,67.648 C712.625,67.567 712.74,67.444 712.74,67.308 C712.74,67.157 712.599,67.024 712.384,66.945 L712.308,66.06 L711.921,61.509 L711.535,66.06 L711.459,66.945 C711.244,67.024 711.103,67.157 711.103,67.308 C711.103,67.444 711.218,67.567 711.4,67.648 L711.275,69.108 C710.879,69.22 710.608,69.443 710.608,69.701 C710.608,69.906 710.781,70.091 711.052,70.214 C710.642,70.431 710.372,70.797 710.372,71.21 L710.372,72.138 C710.372,72.328 710.429,72.507 710.53,72.667 C706.405,76.846 698.09,80.935 704.332,86.798 L704.316,86.798 L704.316,88.898 L705.333,88.898 L705.333,100.092 L703.64,100.092 L703.64,104.527 L705.333,104.527 L705.333,129.751 L703.64,129.751 L703.64,134.186 L705.333,134.186 L705.333,139.002 L669.403,139.002 L669.403,135.691 L671.256,135.691 L671.256,132.141 L669.403,132.141 L669.403,111.952 L671.256,111.952 L671.256,108.402 L669.403,108.402 L669.403,99.441 L670.218,99.441 L670.218,97.761 L670.205,97.761 C675.477,92.808 668.625,89.875 665.243,86.449 C665.324,86.321 665.369,86.178 665.369,86.026 L665.369,85.283 C665.369,84.935 665.129,84.627 664.77,84.458 C664.955,84.36 665.069,84.226 665.069,84.075 C665.069,83.895 664.903,83.736 664.65,83.639 L664.548,82.432 C664.692,82.367 664.785,82.269 664.785,82.16 C664.785,82.039 664.672,81.933 664.5,81.869 L664.439,81.161 L664.129,77.518 L663.82,81.161 L663.759,81.869 C663.587,81.933 663.474,82.039 663.474,82.16 C663.474,82.269 663.567,82.367 663.712,82.432 L663.612,83.601 C663.295,83.69 663.078,83.869 663.078,84.075 C663.078,84.24 663.216,84.387 663.433,84.485 C663.106,84.66 662.889,84.953 662.889,85.283 L662.889,86.026 C662.889,86.178 662.935,86.321 663.016,86.449 C659.714,89.794 653.059,93.067 658.055,97.761 L658.042,97.761 L658.042,99.441 L658.856,99.441 L658.856,108.402 L657.501,108.402 L657.501,111.952 L658.856,111.952 L658.856,132.141 L657.501,132.141 L657.501,135.691 L658.856,135.691 L658.856,139.002 L608.286,139.002 L608.286,134.379 L603.768,134.379 C607.169,130.194 599.76,127.526 596.318,124.379 L596.318,123.972 C596.318,123.721 596.154,123.498 595.904,123.366 C596.069,123.291 596.174,123.179 596.174,123.054 C596.174,122.898 596.01,122.762 595.769,122.694 L595.693,121.806 C595.803,121.757 595.873,121.683 595.873,121.6 C595.873,121.508 595.787,121.427 595.657,121.379 L595.612,120.842 L595.376,118.075 L595.141,120.842 L595.095,121.379 C594.965,121.427 594.879,121.509 594.879,121.6 C594.879,121.683 594.949,121.757 595.059,121.806 L594.981,122.723 C594.789,122.797 594.663,122.918 594.663,123.054 C594.663,123.168 594.75,123.271 594.889,123.344 C594.617,123.474 594.434,123.707 594.434,123.972 L594.434,124.33 C591.016,127.498 583.513,130.173 586.931,134.379 L583.402,134.379 C586.803,130.194 579.395,127.526 575.952,124.379 L575.952,123.972 C575.952,123.721 575.788,123.498 575.539,123.366 C575.704,123.291 575.809,123.179 575.809,123.054 C575.809,122.898 575.644,122.762 575.404,122.694 L575.328,121.806 C575.438,121.757 575.508,121.683 575.508,121.6 C575.508,121.508 575.423,121.427 575.292,121.379 L575.246,120.842 L575.011,118.075 L574.776,120.842 L574.73,121.379 C574.599,121.427 574.513,121.509 574.513,121.6 C574.513,121.683 574.583,121.757 574.693,121.806 L574.616,122.723 C574.423,122.797 574.298,122.918 574.298,123.054 C574.298,123.168 574.385,123.271 574.524,123.344 C574.252,123.474 574.069,123.707 574.069,123.972 L574.069,124.33 C570.651,127.498 563.148,130.173 566.566,134.379 L563.037,134.379 C566.438,130.194 559.029,127.526 555.587,124.379 L555.587,123.972 C555.587,123.721 555.423,123.498 555.174,123.366 C555.338,123.291 555.443,123.179 555.443,123.054 C555.443,122.898 555.279,122.762 555.038,122.694 L554.963,121.806 C555.073,121.757 555.143,121.683 555.143,121.6 C555.143,121.508 555.057,121.428 554.927,121.379 L554.881,120.842 L554.646,118.075 L554.41,120.842 L554.365,121.379 C554.234,121.428 554.148,121.509 554.148,121.6 C554.148,121.683 554.218,121.757 554.328,121.806 L554.25,122.723 C554.058,122.797 553.933,122.918 553.933,123.054 C553.933,123.168 554.019,123.271 554.159,123.345 C553.887,123.474 553.704,123.707 553.704,123.972 L553.704,124.33 C550.285,127.498 542.783,130.173 546.201,134.379 L542.62,134.379 L542.62,121.664 L543.854,121.664 L543.854,118.433 L542.62,118.433 L542.62,100.052 L543.854,100.052 L543.854,96.821 L542.62,96.821 L542.62,88.663 L543.361,88.663 L543.361,87.133 L543.35,87.133 C547.898,82.861 541.839,79.881 538.833,76.835 C538.907,76.719 538.948,76.588 538.948,76.45 L538.948,75.774 C538.948,75.473 538.751,75.206 538.453,75.047 C538.651,74.958 538.776,74.824 538.776,74.674 C538.776,74.486 538.579,74.324 538.29,74.242 L538.199,73.178 C538.331,73.119 538.416,73.03 538.416,72.93 C538.416,72.821 538.312,72.724 538.156,72.665 L537.819,68.704 L537.482,72.665 C537.326,72.724 537.223,72.821 537.223,72.93 C537.223,73.03 537.307,73.119 537.439,73.178 L537.346,74.276 C537.115,74.365 536.964,74.51 536.964,74.674 C536.964,74.811 537.068,74.933 537.236,75.022 C536.909,75.176 536.69,75.456 536.69,75.774 L536.69,76.45 C536.69,76.588 536.732,76.719 536.805,76.835 C533.727,79.954 527.489,82.624 532.289,87.133 L532.277,87.133 L532.277,88.663 L533.018,88.663 L533.018,96.821 L531.332,96.821 L531.332,100.052 L533.018,100.052 L533.018,118.433 L531.332,118.433 L531.332,121.664 L533.018,121.664 L533.018,123.74 L529.562,123.74 C533.136,115.224 517.845,109.367 510.403,102.563 L510.403,101.601 C510.403,101.007 510.015,100.481 509.426,100.168 C509.816,99.992 510.063,99.727 510.063,99.432 C510.063,99.061 509.675,98.74 509.105,98.579 L508.927,96.48 C509.187,96.364 509.353,96.189 509.353,95.993 C509.353,95.775 509.15,95.584 508.841,95.47 L508.176,87.657 L507.512,95.47 C507.203,95.584 507,95.776 507,95.993 C507,96.189 507.166,96.364 507.426,96.48 L507.241,98.647 C506.787,98.822 506.49,99.108 506.49,99.432 C506.49,99.7 506.696,99.944 507.026,100.118 C506.382,100.423 505.949,100.974 505.949,101.601 L505.949,102.448 C498.555,109.3 483.072,115.175 486.665,123.74 L479.456,123.74 L479.456,111.81 L480.689,111.81 L480.689,108.579 L479.456,108.579 L479.456,90.198 L480.689,90.198 L480.689,86.967 L479.456,86.967 L479.456,78.809 L480.197,78.809 L480.197,77.279 L480.185,77.279 C484.733,73.007 478.675,70.026 475.668,66.981 C475.742,66.864 475.783,66.734 475.783,66.596 L475.783,65.92 C475.783,65.619 475.587,65.352 475.288,65.193 C475.486,65.104 475.612,64.97 475.612,64.82 C475.612,64.632 475.414,64.469 475.125,64.388 L475.035,63.324 C475.167,63.265 475.251,63.176 475.251,63.076 C475.251,62.967 475.148,62.87 474.992,62.811 L474.655,58.851 L474.318,62.811 C474.161,62.87 474.058,62.967 474.058,63.076 C474.058,63.176 474.142,63.265 474.274,63.324 L474.181,64.422 C473.95,64.511 473.8,64.656 473.8,64.82 C473.8,64.957 473.904,65.079 474.072,65.168 C473.745,65.322 473.525,65.602 473.525,65.92 L473.525,66.596 C473.525,66.734 473.567,66.864 473.641,66.981 C470.562,70.1 464.324,72.77 469.124,77.279 L469.113,77.279 L469.113,78.809 L469.853,78.809 L469.853,86.967 L468.168,86.967 L468.168,90.198 L469.853,90.198 L469.853,108.579 L468.168,108.579 L468.168,111.81 L469.853,111.81 L469.853,123.74 L458.935,123.74 C472.032,112.463 452.378,105.765 443.613,97.753 L443.613,96.79 C443.613,96.197 443.225,95.67 442.636,95.358 C443.026,95.181 443.273,94.917 443.273,94.621 C443.273,94.251 442.885,93.929 442.315,93.769 L442.136,91.67 C442.397,91.554 442.562,91.378 442.562,91.182 C442.562,90.965 442.36,90.774 442.051,90.659 L441.942,89.388 L441.386,82.846 L440.722,90.659 C440.413,90.774 440.21,90.965 440.21,91.182 C440.21,91.378 440.376,91.553 440.636,91.67 L440.451,93.837 C439.997,94.011 439.7,94.298 439.7,94.621 C439.7,94.89 439.906,95.133 440.236,95.308 C439.592,95.613 439.159,96.164 439.159,96.79 L439.159,97.637 C430.459,105.701 410.553,112.409 423.712,123.74 L403.906,123.74 L403.906,120.906 L402.663,120.906 C423.235,103.193 392.362,92.671 378.596,80.086 L378.596,78.575 C378.596,77.642 377.986,76.815 377.06,76.324 C377.673,76.047 378.063,75.631 378.063,75.167 C378.063,74.585 377.452,74.08 376.557,73.828 L376.277,70.531 C376.685,70.349 376.946,70.073 376.946,69.765 C376.946,69.424 376.627,69.123 376.142,68.944 L375.098,56.671 L374.054,68.944 C373.569,69.123 373.251,69.424 373.251,69.765 C373.251,70.073 373.511,70.348 373.919,70.531 L373.63,73.935 C372.916,74.209 372.45,74.659 372.45,75.167 C372.45,75.59 372.772,75.972 373.292,76.246 C372.279,76.724 371.6,77.591 371.6,78.575 L371.6,79.905 C357.934,92.57 326.666,103.108 347.336,120.906 L346.093,120.906 L346.093,123.74 L326.286,123.74 C339.383,112.463 319.729,105.765 310.964,97.753 L310.964,96.79 C310.964,96.197 310.576,95.67 309.987,95.358 C310.377,95.181 310.625,94.917 310.625,94.621 C310.625,94.251 310.236,93.929 309.666,93.769 L309.488,91.67 C309.748,91.554 309.914,91.378 309.914,91.182 C309.914,90.965 309.712,90.774 309.402,90.659 L308.737,82.846 L308.073,90.659 C307.764,90.774 307.561,90.965 307.561,91.182 C307.561,91.378 307.727,91.553 307.987,91.67 L307.802,93.837 C307.348,94.011 307.052,94.298 307.052,94.621 C307.052,94.89 307.257,95.133 307.587,95.308 C306.943,95.613 306.51,96.164 306.51,96.79 L306.51,97.637 C297.81,105.701 277.904,112.409 291.063,123.74 L282.971,123.74 L282.971,111.81 L284.204,111.81 L284.204,108.579 L282.971,108.579 L282.971,90.198 L284.204,90.198 L284.204,86.967 L282.971,86.967 L282.971,78.809 L283.712,78.809 L283.712,77.279 L283.701,77.279 C288.249,73.007 282.19,70.026 279.184,66.981 C279.257,66.864 279.299,66.734 279.299,66.596 L279.299,65.92 C279.299,65.619 279.102,65.352 278.803,65.193 C279.001,65.104 279.127,64.97 279.127,64.82 C279.127,64.632 278.93,64.469 278.641,64.388 L278.55,63.324 C278.682,63.265 278.766,63.176 278.766,63.076 C278.766,62.967 278.663,62.87 278.507,62.811 L278.17,58.851 L277.833,62.811 C277.676,62.87 277.573,62.967 277.573,63.076 C277.573,63.176 277.657,63.265 277.789,63.324 L277.696,64.422 C277.466,64.511 277.315,64.656 277.315,64.82 C277.315,64.957 277.419,65.079 277.587,65.168 C277.26,65.322 277.041,65.602 277.041,65.92 L277.041,66.596 C277.041,66.734 277.082,66.864 277.156,66.981 C274.077,70.1 267.84,72.77 272.639,77.279 L272.628,77.279 L272.628,78.809 L273.369,78.809 L273.369,86.967 L271.683,86.967 L271.683,90.198 L273.369,90.198 L273.369,108.579 L271.683,108.579 L271.683,111.81 L273.369,111.81 L273.369,123.74 L263.334,123.74 C266.907,115.224 251.617,109.367 244.175,102.563 L244.175,101.601 C244.175,101.007 243.787,100.481 243.197,100.168 C243.587,99.992 243.835,99.727 243.835,99.432 C243.835,99.061 243.447,98.74 242.877,98.579 L242.698,96.48 C242.959,96.364 243.124,96.189 243.124,95.993 C243.124,95.775 242.922,95.584 242.613,95.47 L242.504,94.199 L241.948,87.657 L241.391,94.199 L241.284,95.47 C240.974,95.584 240.771,95.776 240.771,95.993 C240.771,96.189 240.938,96.364 241.197,96.48 L241.013,98.647 C240.558,98.822 240.262,99.108 240.262,99.432 C240.262,99.7 240.468,99.944 240.798,100.118 C240.154,100.423 239.721,100.974 239.721,101.601 L239.721,102.448 C232.327,109.3 216.844,115.175 220.437,123.74 L217.252,123.74 L217.252,121.664 L218.485,121.664 L218.485,118.433 L217.252,118.433 L217.252,100.052 L218.485,100.052 L218.485,96.821 L217.252,96.821 L217.252,88.663 L217.993,88.663 L217.993,87.133 L217.981,87.133 C222.529,82.861 216.471,79.881 213.464,76.835 C213.538,76.719 213.58,76.588 213.58,76.45 L213.58,75.774 C213.58,75.473 213.383,75.206 213.084,75.047 C213.282,74.958 213.407,74.824 213.407,74.674 C213.407,74.486 213.21,74.324 212.921,74.242 L212.831,73.178 C212.963,73.119 213.047,73.03 213.047,72.93 C213.047,72.821 212.944,72.724 212.788,72.665 L212.451,68.704 L212.114,72.665 C211.957,72.724 211.854,72.821 211.854,72.93 C211.854,73.03 211.938,73.119 212.07,73.178 L211.977,74.276 C211.746,74.365 211.596,74.51 211.596,74.674 C211.596,74.811 211.7,74.933 211.868,75.022 C211.541,75.176 211.321,75.456 211.321,75.774 L211.321,76.45 C211.321,76.588 211.363,76.719 211.437,76.835 C208.358,79.954 202.12,82.624 206.92,87.133 L206.908,87.133 L206.908,88.663 L207.649,88.663 L207.649,96.821 L205.963,96.821 L205.963,100.052 L207.649,100.052 L207.649,118.433 L205.963,118.433 L205.963,121.664 L207.649,121.664 L207.649,134.379 L205.705,134.379 C209.106,130.194 201.697,127.526 198.255,124.379 L198.255,123.972 C198.255,123.721 198.091,123.498 197.842,123.366 C198.006,123.291 198.112,123.179 198.112,123.054 C198.112,122.898 197.947,122.762 197.706,122.694 L197.631,121.806 C197.741,121.757 197.811,121.683 197.811,121.6 C197.811,121.508 197.725,121.427 197.595,121.379 L197.549,120.842 L197.314,118.075 L197.078,120.842 L197.033,121.379 C196.902,121.427 196.816,121.509 196.816,121.6 C196.816,121.683 196.886,121.757 196.996,121.806 L196.918,122.723 C196.726,122.797 196.601,122.918 196.601,123.054 C196.601,123.168 196.687,123.271 196.827,123.344 C196.555,123.474 196.372,123.707 196.372,123.972 L196.372,124.33 C192.953,127.498 185.451,130.173 188.869,134.379 L185.34,134.379 C188.74,130.194 181.332,127.526 177.89,124.379 L177.89,123.972 C177.89,123.721 177.726,123.498 177.477,123.366 C177.642,123.291 177.746,123.179 177.746,123.054 C177.746,122.898 177.582,122.762 177.341,122.694 L177.266,121.806 C177.376,121.757 177.446,121.683 177.446,121.6 C177.446,121.508 177.36,121.427 177.229,121.379 L177.183,120.842 L176.948,118.075 L176.713,120.842 L176.668,121.379 C176.536,121.427 176.451,121.509 176.451,121.6 C176.451,121.683 176.521,121.757 176.631,121.806 L176.553,122.723 C176.361,122.797 176.236,122.918 176.236,123.054 C176.236,123.168 176.322,123.271 176.462,123.344 C176.189,123.474 176.006,123.707 176.006,123.972 L176.006,124.33 C172.588,127.498 165.085,130.173 168.503,134.379 L164.975,134.379 C168.375,130.194 160.967,127.526 157.525,124.379 L157.525,123.972 C157.525,123.721 157.361,123.498 157.111,123.366 C157.276,123.291 157.381,123.179 157.381,123.054 C157.381,122.898 157.217,122.762 156.976,122.694 L156.9,121.806 C157.01,121.757 157.08,121.683 157.08,121.6 C157.08,121.508 156.995,121.428 156.864,121.379 L156.818,120.842 L156.583,118.075 L156.348,120.842 L156.302,121.379 C156.171,121.428 156.086,121.509 156.086,121.6 C156.086,121.683 156.156,121.757 156.266,121.806 L156.188,122.723 C155.996,122.797 155.87,122.918 155.87,123.054 C155.87,123.168 155.957,123.271 156.097,123.345 C155.824,123.474 155.642,123.707 155.642,123.972 L155.642,124.33 C152.223,127.498 144.72,130.173 148.138,134.379 L141.713,134.379 L141.713,139.002 L91.144,139.002 L91.144,135.691 L92.499,135.691 L92.499,132.141 L91.144,132.141 L91.144,111.952 L92.499,111.952 L92.499,108.402 L91.144,108.402 L91.144,99.441 L91.958,99.441 L91.945,97.761 C96.942,93.067 90.286,89.794 86.984,86.449 C87.065,86.321 87.111,86.178 87.111,86.026 L87.111,85.283 C87.111,84.953 86.894,84.66 86.566,84.485 C86.783,84.387 86.922,84.24 86.922,84.075 C86.922,83.869 86.705,83.69 86.388,83.601 L86.288,82.432 C86.433,82.367 86.526,82.269 86.526,82.16 C86.526,82.039 86.413,81.933 86.241,81.869 L85.871,77.518 L85.501,81.869 C85.328,81.933 85.215,82.039 85.215,82.16 C85.215,82.269 85.307,82.367 85.453,82.432 L85.35,83.639 C85.097,83.736 84.931,83.895 84.931,84.075 C84.931,84.226 85.046,84.36 85.23,84.458 C84.871,84.627 84.63,84.935 84.63,85.283 L84.63,86.026 C84.63,86.178 84.676,86.321 84.757,86.449 C81.375,89.875 74.523,92.808 79.795,97.761 L79.782,97.761 L79.782,99.441 L80.597,99.441 L80.597,108.402 L78.744,108.402 L78.744,111.952 L80.597,111.952 L80.597,132.141 L78.744,132.141 L78.744,135.691 L80.597,135.691 L80.597,139.002 L44.667,139.002 L44.667,134.186 L46.36,134.186 L46.36,129.751 L44.667,129.751 L44.667,104.527 L46.36,104.527 L46.36,100.092 L44.667,100.092 L44.667,88.898 L45.684,88.898 L45.684,86.798 L45.668,86.798 C51.91,80.935 43.595,76.846 39.47,72.667 C39.571,72.507 39.628,72.328 39.628,72.138 L39.628,71.21 C39.628,70.797 39.358,70.431 38.948,70.214 C39.219,70.091 39.391,69.906 39.391,69.701 C39.391,69.443 39.121,69.22 38.725,69.108 L38.6,67.648 C38.782,67.567 38.897,67.444 38.897,67.308 C38.897,67.157 38.756,67.024 38.541,66.945 L38.465,66.06 L38.079,61.509 L37.692,66.06 L37.616,66.945 C37.401,67.024 37.26,67.157 37.26,67.308 C37.26,67.444 37.375,67.567 37.556,67.648 L37.428,69.156 C37.112,69.277 36.905,69.476 36.905,69.701 C36.905,69.889 37.048,70.057 37.278,70.179 C36.83,70.39 36.529,70.774 36.529,71.21 L36.529,72.138 C36.529,72.328 36.586,72.507 36.687,72.667 C32.463,76.946 23.903,80.611 30.488,86.798 L30.472,86.798 L30.472,88.898 L31.49,88.898 L31.49,100.092 L29.176,100.092 L29.176,104.527 L31.49,104.527 L31.49,129.751 L29.176,129.751 L29.176,134.186 L31.49,134.186 L31.49,139.002 L31.489,139.002 L31.489,199.025 L718.51,199.025 L718.51,134.186 L720.824,134.186 L720.824,129.751 L718.51,129.751 L718.51,104.527 L720.824,104.527 L720.824,100.092 L718.51,100.092 L718.51,88.898" id="Fill-46" fill="#47504B" mask="url(#mask-2)"></path>
                <path d="M643.572,125.728 L635.165,125.728 L635.165,116.928 L635.166,116.928 C635.064,114.982 638.345,113.622 639.369,111.919 C640.393,113.622 643.674,114.982 643.571,116.928 L643.572,116.928 L643.572,125.728 M573.659,103.429 L565.252,103.429 L565.252,94.629 L565.253,94.629 C565.151,92.683 568.432,91.323 569.456,89.62 C570.48,91.323 573.761,92.683 573.658,94.629 L573.659,94.629 L573.659,103.429 M573.659,150.981 L565.252,150.981 L565.252,142.183 L565.253,142.183 C565.151,140.237 568.432,138.876 569.456,137.172 C570.48,138.876 573.761,140.237 573.658,142.183 L573.659,142.183 L573.659,150.981 M513.138,79.477 L504.73,79.477 L504.73,70.677 L504.731,70.677 C504.629,68.732 507.91,67.371 508.934,65.667 C509.958,67.371 513.239,68.732 513.136,70.677 L513.138,70.677 L513.138,79.477 M513.138,127.03 L504.73,127.03 L504.73,118.231 L504.731,118.231 C504.629,116.286 507.91,114.924 508.934,113.221 C509.958,114.924 513.239,116.286 513.136,118.231 L513.138,118.231 L513.138,127.03 M411.459,154.48 L398.42,154.48 L398.42,145.54 L398.421,145.54 C398.262,143.394 403.352,141.891 404.94,140.012 C406.528,141.891 411.617,143.394 411.457,145.54 L411.459,145.54 L411.459,154.48 M392.257,154.48 L379.218,154.48 L379.218,145.54 L379.219,145.54 C379.06,143.394 384.15,141.891 385.738,140.012 C387.326,141.891 392.416,143.394 392.255,145.54 L392.257,145.54 L392.257,154.48 M373.055,154.48 L360.016,154.48 L360.016,145.54 L360.017,145.54 C359.858,143.394 364.948,141.891 366.536,140.012 C368.124,141.891 373.213,143.394 373.054,145.54 L373.055,145.54 L373.055,154.48 M353.853,154.48 L340.814,154.48 L340.814,145.54 L340.815,145.54 C340.657,143.394 345.746,141.891 347.334,140.012 C348.922,141.891 354.011,143.394 353.852,145.54 L353.853,145.54 L353.853,154.48 M248.061,79.477 L239.654,79.477 L239.654,70.677 L239.655,70.677 C239.553,68.732 242.834,67.371 243.858,65.667 C244.882,67.371 248.162,68.732 248.06,70.677 L248.061,70.677 L248.061,79.477 M248.061,127.03 L239.654,127.03 L239.654,118.231 L239.655,118.231 C239.553,116.286 242.834,114.924 243.858,113.221 C244.882,114.924 248.162,116.286 248.06,118.231 L248.061,118.231 L248.061,127.03 M187.539,103.429 L179.132,103.429 L179.132,94.629 L179.133,94.629 C179.031,92.683 182.312,91.323 183.336,89.62 C184.36,91.323 187.641,92.683 187.538,94.629 L187.539,94.629 L187.539,103.429 M187.539,150.981 L179.132,150.981 L179.132,142.183 L179.133,142.183 C179.031,140.237 182.312,138.876 183.336,137.172 C184.36,138.876 187.641,140.237 187.538,142.183 L187.539,142.183 L187.539,150.981 M117.627,125.728 L109.22,125.728 L109.22,116.928 L109.221,116.928 C109.118,114.982 112.399,113.622 113.423,111.919 C114.447,113.622 117.728,114.982 117.625,116.928 L117.627,116.928 L117.627,125.728 M648.619,156.711 L648.619,132.838 L650.996,132.838 L650.996,125.728 L648.619,125.728 L648.619,107.779 L650.047,107.779 L650.047,104.412 L650.024,104.412 C658.787,95.01 647.116,88.457 641.322,81.755 C641.464,81.498 641.544,81.211 641.544,80.906 L641.544,79.419 C641.544,78.757 641.164,78.17 640.59,77.822 C640.971,77.625 641.212,77.329 641.212,76.999 C641.212,76.587 640.832,76.227 640.276,76.048 L640.101,73.707 C640.356,73.578 640.518,73.381 640.518,73.163 C640.518,72.921 640.319,72.709 640.018,72.58 L639.913,71.162 L639.369,63.865 L638.826,71.162 L638.719,72.58 C638.419,72.709 638.218,72.921 638.218,73.163 C638.218,73.381 638.382,73.578 638.636,73.707 L638.456,76.124 C638.012,76.32 637.722,76.638 637.722,76.999 C637.722,77.3 637.922,77.57 638.245,77.766 C637.616,78.105 637.193,78.72 637.193,79.419 L637.193,80.906 C637.193,81.211 637.274,81.498 637.415,81.755 C631.484,88.617 619.466,94.492 628.714,104.412 L628.691,104.412 L628.691,107.779 L630.119,107.779 L630.119,125.728 L626.87,125.728 L626.87,132.838 L630.119,132.838 L630.119,153.503 C627.744,144.506 613.5,137.447 605.866,129.478 L605.866,128.105 C605.866,127.258 605.381,126.508 604.646,126.062 C605.132,125.81 605.442,125.433 605.442,125.012 C605.442,124.483 604.957,124.025 604.245,123.795 L604.022,120.802 C604.347,120.637 604.554,120.387 604.554,120.107 C604.554,119.797 604.301,119.524 603.915,119.361 L603.085,108.218 L602.255,119.361 C601.869,119.524 601.616,119.797 601.616,120.107 C601.616,120.386 601.823,120.636 602.148,120.802 L601.918,123.893 C601.351,124.142 600.98,124.55 600.98,125.012 C600.98,125.395 601.236,125.742 601.649,125.991 C600.845,126.426 600.304,127.212 600.304,128.105 L600.304,129.313 C594.262,135.708 583.896,141.506 578.706,148.171 L578.706,110.54 L581.083,110.54 L581.083,103.429 L578.706,103.429 L578.706,85.48 L580.134,85.48 L580.134,82.113 L580.111,82.113 C588.874,72.711 577.203,66.158 571.409,59.456 C571.551,59.199 571.631,58.912 571.631,58.607 L571.631,57.12 C571.631,56.458 571.251,55.872 570.677,55.523 C571.058,55.326 571.3,55.03 571.3,54.7 C571.3,54.288 570.919,53.928 570.363,53.749 L570.189,51.408 C570.444,51.279 570.606,51.082 570.606,50.864 C570.606,50.622 570.406,50.41 570.105,50.281 L570,48.863 L569.456,41.565 L568.914,48.863 L568.806,50.281 C568.506,50.41 568.305,50.622 568.305,50.864 C568.305,51.082 568.469,51.279 568.724,51.408 L568.543,53.825 C568.099,54.021 567.809,54.339 567.809,54.7 C567.809,55.001 568.01,55.271 568.332,55.466 C567.704,55.806 567.28,56.421 567.28,57.12 L567.28,58.607 C567.28,58.912 567.361,59.199 567.502,59.456 C561.571,66.318 549.553,72.193 558.801,82.113 L558.778,82.113 L558.778,85.48 L560.206,85.48 L560.206,103.429 L556.957,103.429 L556.957,110.54 L560.206,110.54 L560.206,146.04 C554.731,140.302 546.018,135.118 540.615,129.478 L540.615,128.105 C540.615,127.258 540.13,126.508 539.395,126.062 C539.882,125.81 540.192,125.433 540.192,125.012 C540.192,124.483 539.706,124.025 538.994,123.795 L538.772,120.802 C539.097,120.637 539.304,120.387 539.304,120.107 C539.304,119.797 539.05,119.524 538.664,119.361 L537.834,108.218 L537.004,119.361 C536.619,119.524 536.365,119.797 536.365,120.107 C536.365,120.386 536.572,120.636 536.898,120.802 L536.667,123.893 C536.1,124.142 535.729,124.55 535.729,125.012 C535.729,125.395 535.985,125.742 536.398,125.991 C535.593,126.426 535.053,127.212 535.053,128.105 L535.053,129.313 C530.526,134.105 523.571,138.561 518.184,143.298 L518.184,134.141 L520.561,134.141 L520.561,127.03 L518.184,127.03 L518.184,86.588 L520.561,86.588 L520.561,79.477 L518.184,79.477 L518.184,61.528 L519.612,61.528 L519.612,58.161 L519.589,58.161 C528.352,48.761 516.679,42.204 510.887,35.504 C511.029,35.247 511.109,34.96 511.109,34.656 L511.109,33.168 C511.109,32.506 510.73,31.919 510.155,31.57 C510.535,31.373 510.778,31.078 510.778,30.749 C510.778,30.336 510.398,29.977 509.841,29.797 L509.667,27.456 C509.922,27.327 510.083,27.13 510.083,26.912 C510.083,26.67 509.885,26.457 509.584,26.329 L508.935,17.614 L508.285,26.329 C507.983,26.457 507.785,26.67 507.785,26.912 C507.785,27.13 507.947,27.326 508.202,27.456 L508.021,29.874 C507.577,30.069 507.287,30.388 507.287,30.749 C507.287,31.049 507.488,31.319 507.811,31.514 C507.181,31.854 506.759,32.47 506.759,33.168 L506.759,34.656 C506.759,34.96 506.839,35.247 506.981,35.504 C501.05,42.365 489.032,48.242 498.278,58.161 L498.256,58.161 L498.256,61.528 L499.684,61.528 L499.684,79.477 L496.435,79.477 L496.435,86.588 L499.684,86.588 L499.684,127.03 L496.435,127.03 L496.435,134.141 L499.684,134.141 L499.684,156.711 L496.264,156.711 C502.966,140.108 476.89,128.78 464.265,115.599 L464.265,113.752 C464.265,112.613 463.612,111.603 462.622,111.003 C463.278,110.665 463.694,110.157 463.694,109.59 C463.694,108.88 463.041,108.263 462.084,107.955 L461.784,103.928 C462.221,103.706 462.5,103.369 462.5,102.992 C462.5,102.576 462.16,102.209 461.64,101.989 L460.524,87 L459.408,101.99 C458.888,102.209 458.548,102.576 458.548,102.992 C458.548,103.369 458.826,103.705 459.263,103.928 L458.953,108.086 C458.19,108.421 457.692,108.97 457.692,109.59 C457.692,110.106 458.036,110.573 458.592,110.908 C457.509,111.493 456.783,112.55 456.783,113.752 L456.783,115.377 C444.807,128.053 420.197,138.985 423.862,154.48 L419.717,154.48 L419.717,137.458 L422.744,137.458 L422.744,131.129 L420.759,131.129 C427.695,124.308 430.957,118.075 431.6,112.265 L431.6,107.849 C429.346,88.369 398.471,73.545 382.329,56.691 L382.329,53.934 C382.329,52.233 381.355,50.726 379.877,49.83 C380.855,49.325 381.476,48.567 381.476,47.72 C381.476,46.659 380.502,45.739 379.073,45.278 L378.625,39.266 C379.278,38.933 379.694,38.431 379.694,37.869 C379.694,37.247 379.185,36.699 378.411,36.371 L376.872,15.718 C377.194,15.76 377.519,15.789 377.852,15.789 C380.401,15.789 382.65,14.513 384,12.565 C382.782,13.827 381.074,14.614 379.181,14.614 C378.325,14.614 377.509,14.447 376.756,14.154 L376.744,13.991 L376.732,14.145 C374.247,13.167 372.485,10.75 372.485,7.917 C372.485,4.219 375.483,1.22 379.181,1.22 C379.696,1.22 380.196,1.28 380.677,1.39 C379.805,1.034 378.852,0.836 377.852,0.836 C373.723,0.836 370.375,4.184 370.375,8.313 C370.375,12.02 373.078,15.09 376.618,15.679 L375.077,36.372 C374.301,36.699 373.793,37.247 373.793,37.869 C373.793,38.43 374.209,38.933 374.862,39.265 L374.399,45.475 C373.259,45.974 372.515,46.794 372.515,47.72 C372.515,48.49 373.029,49.187 373.859,49.687 C372.243,50.56 371.158,52.14 371.158,53.934 L371.158,56.36 C349.336,79.456 299.407,98.673 332.413,131.129 L330.429,131.129 L330.429,137.458 L332.556,137.458 L332.556,154.48 L328.929,154.48 C332.595,138.985 307.985,128.053 296.009,115.377 L296.009,113.752 C296.009,112.55 295.283,111.493 294.2,110.908 C294.756,110.573 295.1,110.106 295.1,109.59 C295.1,108.97 294.602,108.421 293.838,108.086 L293.529,103.928 C293.965,103.705 294.244,103.369 294.244,102.992 C294.244,102.576 293.903,102.209 293.384,101.99 L292.268,87 L291.152,101.989 C290.632,102.209 290.292,102.576 290.292,102.992 C290.292,103.369 290.57,103.706 291.007,103.928 L290.708,107.955 C289.751,108.263 289.098,108.88 289.098,109.59 C289.098,110.157 289.514,110.665 290.169,111.003 C289.18,111.603 288.527,112.613 288.527,113.752 L288.527,115.599 C275.901,128.78 249.826,140.108 256.528,156.711 L253.108,156.711 L253.108,134.141 L256.356,134.141 L256.356,127.03 L253.108,127.03 L253.108,86.588 L256.356,86.588 L256.356,79.477 L253.108,79.477 L253.108,61.528 L254.535,61.528 L254.535,58.161 L254.514,58.161 C263.76,48.242 251.742,42.365 245.811,35.504 C245.953,35.247 246.032,34.96 246.032,34.656 L246.032,33.168 C246.032,32.47 245.611,31.854 244.981,31.514 C245.304,31.319 245.504,31.049 245.504,30.749 C245.504,30.388 245.214,30.069 244.771,29.874 L244.59,27.456 C244.845,27.326 245.006,27.13 245.006,26.912 C245.006,26.67 244.808,26.457 244.507,26.329 L243.857,17.614 L243.208,26.329 C242.906,26.457 242.708,26.67 242.708,26.912 C242.708,27.13 242.87,27.327 243.125,27.456 L242.951,29.797 C242.394,29.977 242.014,30.336 242.014,30.749 C242.014,31.078 242.256,31.373 242.637,31.57 C242.062,31.919 241.682,32.506 241.682,33.168 L241.682,34.656 C241.682,34.96 241.763,35.247 241.904,35.504 C236.112,42.204 224.439,48.761 233.203,58.161 L233.18,58.161 L233.18,61.528 L234.607,61.528 L234.607,79.477 L232.231,79.477 L232.231,86.588 L234.607,86.588 L234.607,127.03 L232.231,127.03 L232.231,134.141 L234.607,134.141 L234.607,143.298 C229.221,138.561 222.265,134.105 217.738,129.313 L217.738,128.105 C217.738,127.212 217.198,126.426 216.393,125.991 C216.806,125.742 217.062,125.395 217.062,125.012 C217.062,124.55 216.692,124.142 216.125,123.893 L215.894,120.802 C216.219,120.636 216.426,120.386 216.426,120.107 C216.426,119.797 216.172,119.524 215.787,119.361 L214.957,108.218 L214.262,117.548 L214.128,119.361 C213.741,119.524 213.488,119.797 213.488,120.107 C213.488,120.387 213.695,120.637 214.02,120.802 L213.797,123.795 C213.086,124.025 212.6,124.483 212.6,125.012 C212.6,125.433 212.91,125.81 213.397,126.062 C212.661,126.508 212.176,127.258 212.176,128.105 L212.176,129.478 C206.774,135.118 198.061,140.302 192.585,146.04 L192.585,110.54 L195.835,110.54 L195.835,103.429 L192.585,103.429 L192.585,85.48 L194.014,85.48 L194.014,82.113 L193.991,82.113 C203.238,72.193 191.221,66.318 185.289,59.456 C185.43,59.199 185.511,58.912 185.511,58.607 L185.511,57.12 C185.511,56.421 185.088,55.806 184.459,55.466 C184.782,55.271 184.983,55.001 184.983,54.7 C184.983,54.339 184.692,54.021 184.248,53.825 L184.068,51.408 C184.323,51.279 184.486,51.082 184.486,50.864 C184.486,50.622 184.286,50.41 183.985,50.281 L183.878,48.863 L183.336,41.565 L182.791,48.863 L182.686,50.281 C182.385,50.41 182.186,50.622 182.186,50.864 C182.186,51.082 182.348,51.279 182.603,51.408 L182.428,53.749 C181.872,53.928 181.492,54.288 181.492,54.7 C181.492,55.03 181.734,55.326 182.115,55.523 C181.54,55.872 181.161,56.458 181.161,57.12 L181.161,58.607 C181.161,58.912 181.24,59.199 181.383,59.456 C175.589,66.158 163.918,72.711 172.68,82.113 L172.657,82.113 L172.657,85.48 L174.086,85.48 L174.086,103.429 L171.709,103.429 L171.709,110.54 L174.086,110.54 L174.086,148.172 C168.896,141.506 158.529,135.708 152.487,129.313 L152.487,128.105 C152.487,127.212 151.947,126.426 151.142,125.991 C151.555,125.742 151.812,125.395 151.812,125.012 C151.812,124.55 151.441,124.142 150.874,123.893 L150.643,120.802 C150.969,120.636 151.175,120.386 151.175,120.107 C151.175,119.797 150.922,119.524 150.537,119.361 L150.401,117.548 L149.706,108.218 L149.011,117.548 L148.877,119.361 C148.49,119.524 148.237,119.797 148.237,120.107 C148.237,120.387 148.445,120.637 148.769,120.802 L148.546,123.795 C147.835,124.025 147.35,124.483 147.35,125.012 C147.35,125.433 147.66,125.81 148.146,126.062 C147.411,126.508 146.925,127.258 146.925,128.105 L146.925,129.478 C139.292,137.448 125.047,144.506 122.673,153.504 L122.673,132.838 L125.921,132.838 L125.921,125.728 L122.673,125.728 L122.673,107.779 L124.101,107.779 L124.101,104.412 L124.078,104.412 C133.325,94.492 121.308,88.617 115.376,81.755 C115.517,81.498 115.598,81.211 115.598,80.906 L115.598,79.419 C115.598,78.72 115.175,78.105 114.546,77.766 C114.869,77.57 115.07,77.3 115.07,76.999 C115.07,76.638 114.78,76.32 114.335,76.124 L114.155,73.707 C114.41,73.578 114.573,73.381 114.573,73.163 C114.573,72.921 114.373,72.709 114.073,72.58 L113.965,71.162 L113.423,63.865 L112.773,72.58 C112.472,72.709 112.273,72.921 112.273,73.163 C112.273,73.381 112.435,73.578 112.69,73.707 L112.516,76.048 C111.96,76.227 111.579,76.587 111.579,76.999 C111.579,77.329 111.821,77.625 112.202,77.822 C111.627,78.17 111.247,78.757 111.247,79.419 L111.247,80.906 C111.247,81.211 111.327,81.498 111.47,81.755 C105.676,88.457 94.005,95.01 102.768,104.412 L102.745,104.412 L102.745,107.779 L104.173,107.779 L104.173,125.728 L101.796,125.728 L101.796,132.838 L104.173,132.838 L104.173,156.711 L0,156.711 L0,290.44 L750,290.44 L750,156.711 L648.619,156.711" id="Fill-48" fill="#363D39" mask="url(#mask-2)"></path>
            </g>
        </g>
    </g>
</svg>